<svg width="74" height="40" viewBox="0 0 74 40" fill="none" xmlns="http://www.w3.org/2000/svg">
<path d="M20 40C14.4444 40 9.72222 38.0556 5.83333 34.1667C1.94444 30.2778 0 25.5556 0 20C0 14.4444 1.94444 9.72222 5.83333 5.83333C9.72222 1.94444 14.4444 0 20 0H53.3333C58.8889 0 63.6111 1.94444 67.5 5.83333C71.3889 9.72222 73.3333 14.4444 73.3333 20C73.3333 25.5556 71.3889 30.2778 67.5 34.1667C63.6111 38.0556 58.8889 40 53.3333 40H20ZM20 33.3333H53.3333C57 33.3333 60.1389 32.0278 62.75 29.4167C65.3611 26.8056 66.6667 23.6667 66.6667 20C66.6667 16.3333 65.3611 13.1944 62.75 10.5833C60.1389 7.97222 57 6.66667 53.3333 6.66667H20C16.3333 6.66667 13.1944 7.97222 10.5833 10.5833C7.97222 13.1944 6.66667 16.3333 6.66667 20C6.66667 23.6667 7.97222 26.8056 10.5833 29.4167C13.1944 32.0278 16.3333 33.3333 20 33.3333ZM53.3333 30C56.1111 30 58.4722 29.0278 60.4167 27.0833C62.3611 25.1389 63.3333 22.7778 63.3333 20C63.3333 17.2222 62.3611 14.8611 60.4167 12.9167C58.4722 10.9722 56.1111 10 53.3333 10C50.5556 10 48.1944 10.9722 46.25 12.9167C44.3056 14.8611 43.3333 17.2222 43.3333 20C43.3333 22.7778 44.3056 25.1389 46.25 27.0833C48.1944 29.0278 50.5556 30 53.3333 30Z" fill="#00AD26"/>
</svg>
