<svg width="74" height="40" viewBox="0 0 74 40" fill="none" xmlns="http://www.w3.org/2000/svg">
<path d="M53.3335 40C58.8891 40 63.6113 38.0556 67.5002 34.1667C71.3891 30.2778 73.3335 25.5556 73.3335 20C73.3335 14.4444 71.3891 9.72222 67.5002 5.83333C63.6113 1.94444 58.8891 0 53.3335 0H20.0002C14.4446 0 9.72239 1.94444 5.8335 5.83333C1.94461 9.72222 0.000167847 14.4444 0.000167847 20C0.000167847 25.5556 1.94461 30.2778 5.8335 34.1667C9.72239 38.0556 14.4446 40 20.0002 40H53.3335ZM53.3335 33.3333H20.0002C16.3335 33.3333 13.1946 32.0278 10.5835 29.4167C7.97239 26.8056 6.66683 23.6667 6.66683 20C6.66683 16.3333 7.97239 13.1944 10.5835 10.5833C13.1946 7.97222 16.3335 6.66667 20.0002 6.66667H53.3335C57.0002 6.66667 60.1391 7.97222 62.7502 10.5833C65.3613 13.1944 66.6668 16.3333 66.6668 20C66.6668 23.6667 65.3613 26.8056 62.7502 29.4167C60.1391 32.0278 57.0002 33.3333 53.3335 33.3333ZM20.0002 30C17.2224 30 14.8613 29.0278 12.9168 27.0833C10.9724 25.1389 10.0002 22.7778 10.0002 20C10.0002 17.2222 10.9724 14.8611 12.9168 12.9167C14.8613 10.9722 17.2224 10 20.0002 10C22.7779 10 25.1391 10.9722 27.0835 12.9167C29.0279 14.8611 30.0002 17.2222 30.0002 20C30.0002 22.7778 29.0279 25.1389 27.0835 27.0833C25.1391 29.0278 22.7779 30 20.0002 30Z" fill="#E43F09"/>
</svg>
