<svg width="32" height="18" viewBox="0 0 23 15" fill="none" xmlns="http://www.w3.org/2000/svg">
<path d="M22.3653 3.48445L12.3408 0.136816C11.7946 -0.0456052 11.2052 -0.0456052 10.6593 0.136816L0.634479 3.48445C-0.211493 3.76687 -0.211493 4.98288 0.634479 5.2653L2.38213 5.84889C1.99867 6.36412 1.76292 6.99263 1.73956 7.68091C1.39348 7.89653 1.14982 8.28559 1.14982 8.75004C1.14982 9.17113 1.35395 9.52543 1.64792 9.75199L0.730433 14.2395C0.650651 14.6297 0.923777 15 1.29142 15H3.30788C3.67588 15 3.94901 14.6297 3.86923 14.2395L2.95174 9.75199C3.24571 9.52543 3.44983 9.17113 3.44983 8.75004C3.44983 8.29809 3.21732 7.91997 2.88705 7.70044C2.91436 7.11372 3.19036 6.59498 3.6306 6.26607L10.6589 8.61332C10.9845 8.72192 11.6091 8.85746 12.3404 8.61332L22.3653 5.26569C23.2116 4.98288 23.2116 3.76726 22.3653 3.48445ZM12.6783 9.80824C11.653 10.1504 10.7793 9.96136 10.3211 9.80824L5.10943 8.06801L4.59984 12.5C4.59984 13.8809 7.68904 15 11.4999 15C15.3107 15 18.3999 13.8809 18.3999 12.5L17.8903 8.06762L12.6783 9.80824Z" fill="white"/>
</svg>
