<svg width="20" height="24" viewBox="0 0 20 24" fill="none" xmlns="http://www.w3.org/2000/svg">
<path fill-rule="evenodd" clip-rule="evenodd" d="M9.92056 0C12.4627 0 13.6543 0.49345 15.5609 2.46725C17.6263 4.60553 17.9441 5.51019 17.9441 9.45779C17.9441 12.0073 18.5002 14.8857 19.1357 16.0371C19.7712 17.1885 20.1684 18.4221 19.9301 18.9156C19.6918 19.409 18.3413 19.738 16.9113 19.738C15.2166 19.738 14.025 20.2863 13.3365 21.3828C12.7804 22.452 11.5094 23.0277 10 23.0277C8.49063 23.0277 7.21957 22.452 6.58405 21.3828C5.94852 20.2863 4.75691 19.738 3.00922 19.738C1.65872 19.738 0.30823 19.409 0.0699079 18.9156C-0.168414 18.4221 0.228789 17.1885 0.864315 16.0371C1.49984 14.8857 2.05593 11.925 2.13537 9.37555C2.13537 5.51019 2.53257 4.44105 4.43915 2.38501C6.18684 0.49345 7.37846 0 9.92056 0V0ZM4.91579 5.75692C4.20083 6.9083 3.64474 9.62228 3.64474 11.925C3.64474 14.1456 3.24754 16.5306 2.69145 17.1063C1.89704 17.8464 3.40642 18.0932 10.0794 18.0932C16.7525 18.1754 18.1824 17.9287 17.4674 17.1063C16.9113 16.5306 16.4347 13.7344 16.2758 10.9381C16.0375 7.15503 15.5609 5.42795 14.3692 4.19433C13.4954 3.37191 12.0655 2.38501 11.1916 2.13828C10.3178 1.89156 8.80839 2.13828 7.8551 2.71398C6.90181 3.28967 5.55132 4.68778 4.91579 5.75692ZM10.9533 20.8071C11.6683 19.9847 11.5094 19.738 9.92056 19.738C8.41119 19.738 8.17286 19.9025 8.96727 20.7249C9.76168 21.5473 10.1589 21.5473 10.9533 20.7249V20.8071Z" fill="#9E25D3"/>
</svg>
