<svg width="22" height="23" viewBox="0 0 22 23" fill="none" xmlns="http://www.w3.org/2000/svg">
<path fill-rule="evenodd" clip-rule="evenodd" d="M10.8329 0C11.9985 0 13.644 0.282706 14.3982 0.706764C15.1524 1.06015 16.1808 2.47368 16.7293 3.74585C17.2778 4.94735 17.552 6.78494 17.3464 7.77441C17.1407 8.76388 16.5236 10.1067 16.0437 10.8135C15.2209 11.8736 15.2895 12.1563 16.935 13.1458C18.032 13.7819 19.4032 15.0541 20.0203 15.9729C20.7059 16.8917 21.4601 18.7999 21.7344 20.1428C22.2143 22.2631 22.0772 22.6165 21.0487 22.6165C20.4317 22.6165 19.8832 22.0511 19.8832 21.3443C19.8832 20.7082 19.2661 19.0826 18.5119 17.8105C17.7577 16.609 16.1808 15.0541 15.0838 14.4887C13.9868 13.9233 12.067 13.4285 10.97 13.4285C9.80447 13.4285 7.95327 13.9233 6.85627 14.4887C5.6907 15.0541 4.18232 16.609 3.42813 17.8811C2.67395 19.0826 2.05688 20.7082 2.05688 21.415C2.05688 22.0511 1.57694 22.6165 1.02844 22.6165C0.479939 22.6165 0 21.9804 0 21.2029C0 20.4255 0.479939 18.7293 0.959878 17.4571C1.50838 16.2556 3.08532 14.418 4.38801 13.4285C6.44489 11.9443 6.65058 11.5203 5.89639 10.6015C5.41645 10.0361 4.79939 8.76388 4.5937 7.77441C4.38801 6.78494 4.66226 5.01803 5.27933 3.81653C5.82783 2.54435 6.78771 1.2015 7.47333 0.777441C8.0904 0.353382 9.59878 0 10.7643 0L10.8329 0ZM6.78771 6.43156C6.85627 7.35035 7.26765 8.6932 7.74758 9.47064C8.36465 10.3188 9.46165 10.8135 11.0386 10.8135C12.6155 10.8135 13.7125 10.3188 14.3296 9.47064C14.8095 8.6932 15.1524 7.35035 15.1524 6.36088C15.2209 5.37141 14.6724 4.02856 13.9868 3.39247C13.3012 2.68571 11.9299 2.12029 10.97 2.12029C10.0102 2.12029 8.6389 2.68571 7.95327 3.39247C7.26765 4.09923 6.71914 5.44209 6.78771 6.43156Z" fill="#9E25D3"/>
</svg>
